<svg viewBox="0 0 504 504" xmlns:xlink="http://www.w3.org/1999/xlink" xmlns="http://www.w3.org/2000/svg" data-name="Layer 1" id="Layer_1"><defs><style>.cls-1{fill:#381932;}.cls-2{fill:url(#radial-gradient);}.cls-3{fill:url(#radial-gradient-2);}.cls-4{fill:url(#radial-gradient-3);}.cls-5{fill:url(#radial-gradient-4);}</style><radialGradient gradientUnits="userSpaceOnUse" r="111.4" cy="269.53" cx="227.59" id="radial-gradient"><stop stop-color="#f1d87c" offset="0"></stop><stop stop-color="#efd67a" offset="0.35"></stop><stop stop-color="#eace74" offset="0.54"></stop><stop stop-color="#e0c06a" offset="0.68"></stop><stop stop-color="#d2ad5c" offset="0.81"></stop><stop stop-color="#c0944a" offset="0.92"></stop><stop stop-color="#b07f3a" offset="1"></stop></radialGradient><radialGradient gradientUnits="userSpaceOnUse" r="44.99" cy="178.37" cx="119.68" id="radial-gradient-2"><stop stop-color="#f1d87c" offset="0"></stop><stop stop-color="#ebd076" offset="0.18"></stop><stop stop-color="#dcbb67" offset="0.45"></stop><stop stop-color="#c3994d" offset="0.79"></stop><stop stop-color="#b07f3a" offset="1"></stop></radialGradient><radialGradient xlink:href="#radial-gradient-2" r="0.77" cy="154.23" cx="263.43" id="radial-gradient-3"></radialGradient><radialGradient xlink:href="#radial-gradient-2" r="52.3" cy="179.29" cx="213.37" id="radial-gradient-4"></radialGradient></defs><path d="M328.78,217.33c-7,6.91-15.27,12.37-23.18,17.23-29.34,18-62,33.47-99.89,47.19-8.82,3.2-18,6.35-27.35,9.05a110.3,110.3,0,0,0-30.86-17.27l3.76-21.61-14.53,18h0c-20-5.88-40.63-7.8-61.43-8.38-4.08-.12-8.17,0-12.33-.3q65.76-3.94,114.83-28.9c8.05,4.13,18,6.47,29,6.47,32.27,0,55.68-20.47,55.68-48.67a36,36,0,0,0-8-23q4.32-5.83,8.35-12h.74l.43-1.84h0q21.74-34.14,34.84-79.13c-1.66,11.57-3.63,23.1-4.93,34.7-2.27,20.28-1.8,40.5,3.73,60.3a96.19,96.19,0,0,0,14.42,30.64c.69,1,1.41,1.91,2.14,2.84,1.45,1.87,3,3.66,4.58,5.39.89,1,1.81,1.92,2.75,2.85A88.34,88.34,0,0,0,328.78,217.33Z" class="cls-1"></path><path d="M264,153.31l-.43,1.84h-.74C263.24,154.54,263.64,153.93,264,153.31Z" class="cls-1"></path><path d="M441,245.68c-17.5,2.87-35.26,4.67-52.41,8.9-17.35,4.29-34.37,10.32-51,16.83s-31.84,16.59-46,27.85-27.16,23.84-37.26,38.79-19.59,30.18-27.51,46.22-13.39,33-18.35,45.55c1.32-11.05,3.62-26.37,4.91-41.78,1.6-19.22-.26-38.24-6.73-56.53A94.55,94.55,0,0,0,196,310a706.12,706.12,0,0,0,130.3-59.42,238.78,238.78,0,0,0,27.6-18.51q5.23,2.22,10.84,4.06c22.42,7.38,45.62,9.71,69.09,9.95A42.61,42.61,0,0,0,441,245.68Z" class="cls-1"></path><path d="M367.36,209c-2,4.66-5.5,8.15-9.13,11.49-3.38,3.1-6.9,6-10.52,8.76a245.52,245.52,0,0,1-24.49,16.17,697.26,697.26,0,0,1-131,59.51q-8.43,2.85-16.94,5.51a300.15,300.15,0,0,1-34.51,8.76l12.39,21.55c-17.76-10.71-44.83-19-66.16-22.9a253.84,253.84,0,0,0,29.22-20.06c1.15-1,2.32-1.92,3.5-2.83a155.91,155.91,0,0,0,21.62-21.24l-5.27,30.21a28.5,28.5,0,0,0,3.57.21,52.46,52.46,0,0,0,5.72-.37,218.41,218.41,0,0,0,38.28-8.27c8.09-2.44,16.1-5.21,24.06-8.09,35.15-12.73,69.08-28.11,101-47.72,8.87-5.46,17.53-11.27,24.9-18.71l.05,0a35,35,0,0,0,5.5-7.31c1.9-3.38.8-6.26-2.93-7.15A84.54,84.54,0,0,0,323.82,205a14.77,14.77,0,0,0-1.48-.06c-1.54,0-3.11.16-4.65.21,0-.15-.06-.3-.08-.45,4.4-1.06,8.79-2.19,13.21-3.18,7.46-1.68,15-3.14,22.63-3.14.93,0,1.86,0,2.79.07a25.18,25.18,0,0,1,7.48,1.54C367.84,201.49,369.1,205,367.36,209Z" class="cls-2"></path><polygon points="155.42 125.74 131.44 231.01 98.32 231.01 116.13 152.88 115.51 152.88 83.94 170.02 89.96 143.4 122.3 125.74 155.42 125.74" class="cls-3"></polygon><path d="M262.85,155.15h.74l.43-1.84C263.64,153.93,263.24,154.54,262.85,155.15Z" class="cls-4"></path><path d="M206.82,149.16,200,168.27h.63c6-5.4,13.74-8.53,24.45-8.53s20.07,4.77,25.64,12.39a30.19,30.19,0,0,1,5.76,18c0,24.87-20.7,42.68-49.69,42.68a60,60,0,0,1-22.34-4c-13.54-5.42-22.11-15.91-22.11-28.8,0-.6,0-.66,0-.66h0s0-.17.19-2.7h29.69c.54,7.66,7.18,12.84,16.48,12.84a18.73,18.73,0,0,0,6.28-1.07h0a16.7,16.7,0,0,0,9.24-7.83h0A15.43,15.43,0,0,0,226,193.3c0-8.47-5.86-13.86-14.92-13.86-5.08,0-11.25,2.76-14.29,6.49H167.37l18.83-60.19h78.2l-5.55,23.42Z" class="cls-5"></path></svg>