<svg viewBox="0 0 504 504" xmlns:xlink="http://www.w3.org/1999/xlink" xmlns="http://www.w3.org/2000/svg" data-name="Layer 1" id="Layer_1"><defs><style>.cls-1{fill:#381932;}.cls-2{fill:#d4a556;}.cls-3{fill:url(#linear-gradient);}.cls-4{fill:url(#radial-gradient);}.cls-5{fill:url(#radial-gradient-2);}.cls-6{fill:url(#radial-gradient-3);}.cls-7{fill:url(#radial-gradient-4);}</style><linearGradient gradientUnits="userSpaceOnUse" y2="332.48" x2="115.43" y1="302.6" x1="161.68" id="linear-gradient"><stop stop-color="#f1d87c" offset="0"></stop><stop stop-color="#efd57a" offset="0.18"></stop><stop stop-color="#e7cb72" offset="0.34"></stop><stop stop-color="#dbb965" offset="0.48"></stop><stop stop-color="#c9a153" offset="0.61"></stop><stop stop-color="#b2823c" offset="0.74"></stop><stop stop-color="#b07f3a" offset="0.75"></stop></linearGradient><radialGradient gradientUnits="userSpaceOnUse" r="20.83" cy="127.43" cx="173.85" id="radial-gradient"><stop stop-color="#f1d87c" offset="0"></stop><stop stop-color="#efd67a" offset="0.35"></stop><stop stop-color="#eace74" offset="0.54"></stop><stop stop-color="#e0c06a" offset="0.68"></stop><stop stop-color="#d2ad5c" offset="0.81"></stop><stop stop-color="#c0944a" offset="0.92"></stop><stop stop-color="#b07f3a" offset="1"></stop></radialGradient><radialGradient xlink:href="#radial-gradient" r="86.61" cy="282.06" cx="276.98" id="radial-gradient-2"></radialGradient><radialGradient xlink:href="#radial-gradient" r="83.46" cy="185.44" cx="309.72" id="radial-gradient-3"></radialGradient><radialGradient xlink:href="#radial-gradient" r="31.88" cy="204.33" cx="117.87" id="radial-gradient-4"></radialGradient></defs><circle r="165.39" cy="252" cx="252" class="cls-1"></circle><path d="M107.24,328.64v0l0,0v0a.13.13,0,0,1,0-.06h0Z" class="cls-2"></path><path d="M146,357.78h0v0Z" class="cls-2"></path><path d="M201.13,266l.08-.06h0Z" class="cls-2"></path><path d="M264,415c-.88.11-1.76.2-2.64.29A10.79,10.79,0,0,0,264,415Z" class="cls-2"></path><path d="M390.93,161.4l-.22.18.26-.1A.2.2,0,0,0,390.93,161.4Z" class="cls-2"></path><path d="M410,263.33h.19l0-.08Z" class="cls-2"></path><path d="M94,224.71l.12,0-.09-.1Z" class="cls-2"></path><path d="M101.26,213.84h0a2.91,2.91,0,0,0,.12-.39l-.28.31Z" class="cls-2"></path><path d="M264.86,413.55A1.47,1.47,0,0,1,265,415c2,0,4.07.19,6-.56C268.83,414.56,266.45,415.09,264.86,413.55Z" class="cls-2"></path><path d="M412,291.94c-.71.52-1.86.92-.56,2A2.32,2.32,0,0,0,412,291.94Z" class="cls-2"></path><path d="M218.32,191.2h0l0,0Z" class="cls-2"></path><path d="M392.05,166.23l-.18.17.11,0A1.46,1.46,0,0,0,392.05,166.23Z" class="cls-2"></path><path d="M193.2,251.91s0-.07,0-.11V252a2,2,0,0,1-.47-.65c0,.13.08.26.12.39a.77.77,0,0,0,.46.34l0-.08Z" class="cls-2"></path><path d="M173.11,106.24v0l0,0h0Z" class="cls-2"></path><path d="M271.33,324.46c-.14.44-.26.9-.37,1.35A1.53,1.53,0,0,0,271.33,324.46Z" class="cls-2"></path><path d="M192.53,248.18a10.08,10.08,0,0,0-.05,1.9A13.44,13.44,0,0,0,192.53,248.18Z" class="cls-2"></path><path d="M357.77,354.13l-.3.32.48-.16a.46.46,0,0,0-.07-.07Z" class="cls-2"></path><path d="M174.41,395.83v0h0Z" class="cls-2"></path><path d="M174.41,395.81h0a.16.16,0,0,1,0-.07l-.07,0Z" class="cls-2"></path><path d="M163.14,331a6.25,6.25,0,0,0-3.39-3.68,4.19,4.19,0,0,0-.49-.2,5.61,5.61,0,0,1-.59.06l-1.3-.82a17.67,17.67,0,0,0-10.68-5.16l-1.39-.65a5.2,5.2,0,0,1-.21-.55h0c-3.61-1.49-7.15-3.07-8.48-7.25l.6-1.2c.05-.09.1-.19.14-.28a1.73,1.73,0,0,0-.32.2,1.65,1.65,0,0,0-.61.86c0-.64-.16-1.15-.9-1.3l-.23,0c-1.2-3.69-2.44-7.36-5.74-9.84l0,0a.5.5,0,0,0,0-.12.83.83,0,0,0,0-.22.77.77,0,0,0-.12-.28l-1.15-.72a4.22,4.22,0,0,1-.1-.62c-.09-.25-.18-.5-.29-.73-1.62-3.7-5.23-4.64-8.64-5.85l-.44-.16a4.21,4.21,0,0,1-.62,0l-.74-.51c-.06-.19-.13-.38-.2-.57l0,0c-3.37-1.4-6.62-3-9-5.88l-.08-.09c-.85-.17-1.52-1.11-2.54-.59v0h0a.2.2,0,0,1,0,.19l0,0v.13a2.79,2.79,0,0,1,.54,2.18l.14.42,2.43,7.29a1.63,1.63,0,0,0-.28.47c-.19.79-.16,1.5.68,1.94.08.16.18.1.28,0a.64.64,0,0,0,.1-.13.54.54,0,0,1-.07.17l.84,3.15,4.59,11.75,0,.09a3,3,0,0,0,.5.19c0,.42.09.84.14,1.26a1,1,0,0,0,.27.13l.16,0h.1v0a53.11,53.11,0,0,0,5.26,10.29,3.9,3.9,0,0,0-.19.35,2.29,2.29,0,0,0,.3,1.26,1.49,1.49,0,0,0,.64.6,2.51,2.51,0,0,0,.62.2l0,0c.24.37.46.75.68,1.12l-.18.12c.74,4.27,3.58,7.2,6.46,10.1a3.15,3.15,0,0,1,.44.11,52.45,52.45,0,0,0,6.9,8.88s0,.08,0,.13a3.5,3.5,0,0,0,.15.69.88.88,0,0,0,.44.45h0l0,0a.08.08,0,0,1,0,0l0,.05a.59.59,0,0,0,.66.25,56.4,56.4,0,0,0,7.91,8.44,5,5,0,0,0,.06.54l.05.05q1.92,1.69,3.86,3.37c-.36,1.33.7.6,1.09.68s1.35.35.66-.71c1.18-1.09,2.89-.25,4.13-1.13v.56c.06,0,.11-.09.15-.28a1.09,1.09,0,0,0,0-.18.48.48,0,0,0-.05-.14l.54-.18c3.62-1.29,4.29-3.65,2.51-6.9-.84-1.52-.64-3.13-.41-4.74.31-.08.59-.2.66-.46a.72.72,0,0,0,0-.42,2.84,2.84,0,0,1,.53-2.09s0,0,0-.05a1.29,1.29,0,0,0,.33-1.71l-.25-.14.5-.91.23-.42c.62-3.6,3.16-6.74,2.55-10.64C163.19,331.1,163.17,331,163.14,331Zm-16.42,26-.15.1c.06-.08.11-.16.16-.24S146.72,356.92,146.72,357Z" class="cls-3"></path><path d="M270.54,118.48l.17-.1-.19,0-.18,0a.42.42,0,0,0,.12.08Z" class="cls-2"></path><path d="M210.07,274.44l.17.18.33,0A.5.5,0,0,0,210.07,274.44Z" class="cls-2"></path><path d="M367.13,363.39l-.35.36.5-.2-.07-.08Z" class="cls-2"></path><path d="M192.7,251.34a6.17,6.17,0,0,1-.22-1.26A2.71,2.71,0,0,0,192.7,251.34Z" class="cls-2"></path><path d="M192.56,248l-.05,0V248a.59.59,0,0,1,0,.14s0-.06,0-.1S192.55,248,192.56,248Z" class="cls-2"></path><path d="M192.57,245.18l-.06-.05v.25Z" class="cls-2"></path><path d="M260.36,279.3l.07-.07,0,0A.93.93,0,0,0,260.36,279.3Z" class="cls-2"></path><path d="M260.67,279l.33-.31a1.09,1.09,0,0,0-.4.25A.13.13,0,0,1,260.67,279Z" class="cls-2"></path><path d="M386.75,156.92h0v0Z" class="cls-2"></path><path d="M302.42,112.28a3,3,0,0,1,.93-.26,2.65,2.65,0,0,1-.81-.19.07.07,0,0,0,0,0,.24.24,0,0,1,0-.08h-.27v.66h.12Z" class="cls-2"></path><path d="M409.34,262.67l.12-.13-.14-.06A1.37,1.37,0,0,1,409.34,262.67Z" class="cls-2"></path><path d="M337.39,313.76h0a.24.24,0,0,0,.13.11,1.09,1.09,0,0,1,0-.18Z" class="cls-2"></path><path d="M409.82,244.8l.07,0,.12-.13A1.11,1.11,0,0,0,409.82,244.8Z" class="cls-2"></path><path d="M410.32,257.83a2.42,2.42,0,0,0,.36.18l-.21-.22Z" class="cls-2"></path><path d="M387.69,158.29a3.37,3.37,0,0,0-.32-.19.92.92,0,0,0,0,.82C387.49,158.71,387.59,158.5,387.69,158.29Z" class="cls-2"></path><path d="M257.09,132.5a.28.28,0,0,0,0-.12v.14c0,.15,0,.3,0,.45.05,0,.07-.09.08-.29A.55.55,0,0,0,257.09,132.5Z" class="cls-2"></path><path d="M193.81,114.92c.06,0,.11-.11.16-.16l2.49-2.54c.81-.23,1.09-.78,1.35-1.93-1.2.59-2,1-2.72,1.37-1.32-.06-2.21.84-3.23,1.44l-1.05,0h-.05c-.08.18-.16.37-.23.55h0c-4,1.18-7.46,3.7-11.32,5.28l-.1.12-.54.62a3.56,3.56,0,0,0-2.06,1.23,18.85,18.85,0,0,0-5.45,3.29,12.13,12.13,0,0,0-3.89,2.6l-.6.21h0l-.53.19-.06.44-.7.07-.12.1-8.6,7c-.51.43-1,.85-1.53,1.27-2.09,1.93-5.41,3-5.11,6.67,0,.06,0,.12,0,.18a6.79,6.79,0,0,0,3.82-.57l1.5.56c.08.17.15.34.23.52h0c2.12.64,4.24,1.94,6.41.08l1.1,0h.07l1.5-.55a.94.94,0,0,0,.41,0c.31-.07.39-.36.33-.78l-.08-.05a36.18,36.18,0,0,1,7.11-7.09A.82.82,0,0,0,173,135l.12-.08.8-1.26.6-.18,0,0c1.74-3.38,4.56-6,6.77-9,.46-.47.91-.94,1.37-1.4,2.76-2.27,4.92-5.28,8.33-6.76l.05,0c.07-.18.13-.35.19-.53l1.38-.68C193,115,193.41,115,193.81,114.92Z" class="cls-4"></path><path d="M245.66,411.93c0-.14.06-.27.1-.4a1.37,1.37,0,0,0-.7.11c-1.65,1.41,1.47,1.94.48,3.4h-4.75a6.17,6.17,0,0,0,2.26.25h.17c3.45,0,3.56,0,2.56-3Z" class="cls-2"></path><path d="M356.19,352.51c0,.19,0,.39-.05.6l.3-.32a.76.76,0,0,1-.11-.14A1.85,1.85,0,0,1,356.19,352.51Z" class="cls-2"></path><path d="M358.69,266.46c-2.8.6-5.64,1-8.47,1.49L348.8,266c0-.23,0-.45-.05-.68l-.12-.16q-3.18-4.2-6.35-8.39l-.09-.12-1.37-1.92-.09-.14q-2.89-4.22-5.78-8.42a.91.91,0,0,1-.11-.16l-1.25-2.76,0,0s0,0,0,0c-.86-2.6-1.71-5.19-2.58-7.78a1.81,1.81,0,0,0,.22-.32c.42-2.12-.5-3.77-1.87-5.26a4,4,0,0,1-.5,0,27.83,27.83,0,0,0-5.75-10.29,2.35,2.35,0,0,0,0-.27,1.22,1.22,0,0,0-.91-1h-.08c-2.82-3.49-6.9-4.87-10.93-6.32h0c0-.15-.05-.29-.07-.43a5.75,5.75,0,0,0-5.91-1.81,1.94,1.94,0,0,0-.24.27h0l-.69-.59-.19,0-6.33-1.26c.07-.95-.59-1.28-1.29-1.58l-.1,0-.19,0a1.94,1.94,0,0,0-.75.1l-.26.14a3.33,3.33,0,0,0-3.78.22,5.78,5.78,0,0,1-3.62,1.23s0,0,0,0l-.59.4-.68-.43a10,10,0,0,0-2.56-.27h-.47a8,8,0,0,0-3.42.46,1.74,1.74,0,0,0-.42.51l-2.4-.2a2.18,2.18,0,0,0,0-.25,1.51,1.51,0,0,0-2.06-.64,3,3,0,0,0-.45.34c-4.27-1.19-8.41-2.53-9-8-.56-7-.93-7.31-7.6-6.75-1.16.1-2.33,0-3.51,0h-.08c-2.43-.81-4.84-1.91-7.46-.68a0,0,0,0,0,0,0H247c-3.53.2-6.57,1.81-9.66,3.28l-.2.1-1.22.06c0-.05-.1-.1-.14-.16s0,0,0,0a1.31,1.31,0,0,0-.29.63v.07c-1.18.17-2.25.89-3.49.72l-.16,0-1.29.64,0,0-3,.11c0,.14,0,.26,0,.36-.22-.06-.38-.14-.31-.34-2-.84-3.91-.19-5.77.62h0c-.06.19-.12.39-.19.57a2.33,2.33,0,0,0-1.39,1.31l-.56.14a.36.36,0,0,0,0,.09c-1.36,3.4-5,5.58-5.32,9.53,0,.07,0,.15,0,.22-.4.41-.78.84-1.18,1.25a.23.23,0,0,0,0-.1.33.33,0,0,0,0-.29.57.57,0,0,0-.15-.17c0,.12,0,.24,0,.37a1.29,1.29,0,0,1-.21.19,1.88,1.88,0,0,0-.07.88.17.17,0,0,1,0,.07,34.39,34.39,0,0,1-8.18,5.75l-.14.07-.12.51-.67.52h0c-.63.35-1.25.71-1.87,1.07l-.05,0a18.54,18.54,0,0,0-5.45,8.9c0,.06,0,.12,0,.17l-.11,0a8.28,8.28,0,0,0-1.17,4.53l.22.05-.21.18c-1,4.39-.7,8.85-.61,13.29.16.16.31.31.46.44h-.47l0,3.54c.42.7.85,1.39,1.28,2.08h0v0l1.41,3.27c1.29,3,3.79,5.27,4.77,8.42v0l1.12.26a22.79,22.79,0,0,0,7.13,7.36l0,0v.06l1,1.1c.2,0,.4,0,.6,0l.32.28h0c2.2,1.88,4.34,3.83,6.64,5.59,1.42,1.09,3,2.3,4.94.85h0l0,0,1.91,0s0,0,0,0l0,0a2.57,2.57,0,0,1,2.08-.56c.34.09.55,0,.65-.14a.79.79,0,0,0,.14-.4s0-.05,0-.08H228c3.75-.84,7.5-1.71,10.8-3.83h0a2.9,2.9,0,0,0,.29-.19l1.39-.69.13,0c2-.47,3.87-1.77,6.07-1.28l.14,0,.76,1.37v.07c.28,4.51,2.09,5.74,6.38,4.32,1.44-.47,2.78-1.3,4.38-1.24v.68s.08-.08.12-.24,0,0,0-.06a.54.54,0,0,0-.08-.42l.87-.41.39-.19,1.31.72c.89.4.47,1.3.76,1.94,0,.13,0,.27,0,.4-.23,4.67,1.45,9.17,1.4,13.82l-.32.3a1,1,0,0,0-.09.7.77.77,0,0,0,.42.52l1.13,1c1,.94,2.09,1.88,3.13,2.84,1.66,1.52,3.5,3,2.93,5.66-.29.35-.43.69-.08,1l0,0c-.06.11-.11.14-.14.15a.53.53,0,0,1,0,.11c.06.29.15-.12.33-.15v0l0,0,.51.88c0,.22,0,.45.07.68l-.09,1.31.11.35c1.28,3.84,3.62,7.51,2.09,11.8-.05.15-.11.3-.17.46a12.78,12.78,0,0,0-1.88,4.71l-.18.29c-.13.21-.26.43-.4.64l-.22.37c-1.14,4.84-1.68,9.56,2.62,13.33.44.47.9.93,1.35,1.4a16.19,16.19,0,0,1,3.27,6.55c.08.14.16.28.25.42l1.76,2.88a.75.75,0,0,0,.05.53l.06.11c.4.69.81,1.38,1.22,2.07a2.44,2.44,0,0,0,0,.71,2.78,2.78,0,0,0,.22-.42l1.2,1.72c.07.18.14.36.22.54h0a41,41,0,0,0,4.22,7.86l.16.24c.06.42.11.84.16,1.26l.12-.07-.12.1c-.13,4.78-1.12,4.52,4.12,3.71,1.19-.18,2.38-.32,3.58-.48l.06-.05.8-.52a4.25,4.25,0,0,0,2.82-.58c2.72-.45,4.7-2.42,7.14-3.44l.1-.07,2.36-1.82.13-.1c0-.19.09-.38.13-.56l1.31-.7a1.47,1.47,0,0,0,.1-.22,1.07,1.07,0,0,0,0-.44l1.64-1.93.12-.14.75-1.31a5.19,5.19,0,0,1,.37-.65c1.1-1.71,3-2.66,4.31-4.21l0,0h0a.36.36,0,0,0,0,.09l.1-.1a1.51,1.51,0,0,0,.88-.31h0a.55.55,0,0,0,.18-.24l0-.06,0,0a.64.64,0,0,0,.2-.2.68.68,0,0,0,.14-.53l0,0c1-.78,2-1.54,3-2.3a1.49,1.49,0,0,1,.14-.12l.1-1.32c0-.14,0-.28,0-.42,0-.54,0-1.06-.05-1.59a9.45,9.45,0,0,0-.24-1.75h0a6,6,0,0,1,0-3.42,3.31,3.31,0,0,1,.39-.74,2.8,2.8,0,0,1,0-.5v0h0l1.14-1.54.18-.22,7.1-8.88h0a1.4,1.4,0,0,0,1.2-.45.35.35,0,0,0,.09.15l.11.1v-.15a2.45,2.45,0,0,1,0-.27l.22-.22a1.4,1.4,0,0,0,0-.76c3.3-2.38,4.62-5.92,5.62-9.66l-.06-.1c-.18-.27-.34-.53-.5-.79,0-.89,0-1.79,0-2.69a1.24,1.24,0,0,0,.26-1.17,0,0,0,0,1,0,0l-.13-.13a.45.45,0,0,0-.17-.11.94.94,0,0,0-.42-.12l-.12-.06c-.23-4.54-1.67-9.26,1.73-13.26h0a4.48,4.48,0,0,1,.36-.4,2.15,2.15,0,0,1,0-.62l1.06-.9,0,0a5.1,5.1,0,0,0,2.3-5.06l-.1-.08,3.85-4.2.08,0a3.1,3.1,0,0,0,.62-.13.74.74,0,0,0,.49-.47h0v0a.5.5,0,0,0,.37-.46.54.54,0,0,0,0-.18c0-.08-.05-.16-.07-.25l3-3h0l4.11-6,1.45-1.9c2.61-2.32,3.45-5.55,4.47-8.69C360.43,266.72,360.29,266.11,358.69,266.46Z" class="cls-5"></path><path d="M357.53,316.14a1.36,1.36,0,0,1,.11-.28c0-.1.07-.18.11-.28l.19-.18.19-.19h-.6c-.4-.74-.8-.34-1.19-.08l-.15.09a4.78,4.78,0,0,1-1.38,2.64c-.84,4.48-4.89,5.74-8,7.92-1,.48-1.33,1.44-1.8,2.31a3.5,3.5,0,0,1-.24.42c0,3.51-1.68,6.58-2.66,9.84l-1.2,2.17,0,.05c-.22.67-.43,1.34-.65,2v.35c-.42.46-.24.93,0,1.4,0,0,0,0,0,0s0,0,0,0l0,.6c.59,1.06.76,2.35,1.66,3.25a1.21,1.21,0,0,0,.23.22l.33,0,.32,0,.17-.14c3.31-2.8,6.87-5.34,9.11-9.18.64-1,1.26-2,1.9-3l.22-.35c0-.38,0-.76,0-1.14a1.77,1.77,0,0,0,.46-1.55l.57-.85,0-.05c.76-3.46,1.5-6.94,2.25-10.4C357.56,319.93,357.55,318,357.53,316.14Z" class="cls-2"></path><path d="M402.9,253.84l-.12-.46c0-1.29,0-2.58,0-3.88v-.14l0-1.35h0q-.07-3.51-.17-7a.4.4,0,0,0-.22-.35.44.44,0,0,0-.26,0c0-1.29,0-2.57,0-3.86q-1.41-9.22-2.83-18.43l0-.06c-.37-1-.73-2-1.09-3a5.48,5.48,0,0,0-.77-3.09,2.94,2.94,0,0,0-.6-2.16c0-.61-.07-1.22-.11-1.82l-.14-.16c-.13-.15-.28-.3-.41-.46l-.05-.06a19.05,19.05,0,0,0-1.93-6.1h0s0,0,0,0a50.67,50.67,0,0,0-4-10.4.35.35,0,0,1-.05-.08,5.5,5.5,0,0,0-1.25-2.79l0,0s0-.06,0-.08a54.51,54.51,0,0,0-5.14-10.24l-.18-.28-.74-1.32s0-.08,0-.12a9,9,0,0,0-1.92-3.19c-1.26-3-3.34-5.54-5.25-8.15l-.12-.21a51.15,51.15,0,0,0-6.57-8.78l-.11-.13c-.41-.48-.83-1-1.23-1.45,0,0-.06-.09-.1-.13a54.25,54.25,0,0,0-7.7-8.54h0v0a1.11,1.11,0,0,0-.84-1l-.08,0a58.72,58.72,0,0,0-8.94-8.32l-.24-.18-.58-.47-.3-.3a51,51,0,0,0-8.88-6.93l-.16-.1c-2.8-1.41-4.7-4.23-7.85-5.11a.13.13,0,0,0,0-.06.75.75,0,0,0,0-.16l-.21.17-1.47,1.26q-.33,0-.66,0l-.29,0,0,0,.08,0c-1.91,1.4-3.88,2.1-6,.66l0-.2a.05.05,0,0,1,0,0,1.16,1.16,0,0,0-1-.81l-.18,0c-1.12-1-3-2-3-2.93,0-3-2.22-3.92-4-5.33a3.47,3.47,0,0,1-.29-.25l-1.29,0c-.23-.27-.47-.53-.7-.79l-.23-.16c-1.35-.87-2.93-.84-4.45-1.07a15.51,15.51,0,0,0-5.88,0,2,2,0,0,0-1-.5h-2.58l-9.64,0-.21,0-3.27.62h0c-1.21-.06-2.44-.4-3.5.5l-6.49,2.12-.11.06-2.95,1.78-.26.16-1,0c-.58.4-1.16.78-1.75,1.17l-.4.15c-3.53,1.27-7.29,1.9-10.58,3.83l-.17.09a4.86,4.86,0,0,0-.1.55l-1.4,1.36-.53.1-.08.15c-.55,1.1-1.16,2.17-1.6,3.31-1.17,3-.79,3.49,2.34,3.21h0l.45,0,.3-.06H258l2,0a10.18,10.18,0,0,1,1.84.23l.1,0a5.29,5.29,0,0,1,.5.32,2.32,2.32,0,0,0,.6-.38l1.34,1.28a6.11,6.11,0,0,1,.26.64c.84,2.41.5,5.59,4.21,6.09l1.56.42c.27.05.53.09.77.11h0l.22.06c1.32.39,2.7,1.18,3.78-.54,1.53-2.44,2.95-4.95,4.4-7.44.26-.46.52-.92.79-1.38,1.31-.4,1.19,1.08,1.91,1.46l.16.4h0c1.14,2.74,2.51,5.43,1.8,8.57-.24,2.9-2.59,3.95-4.61,5.29a7.34,7.34,0,0,1-1.23.65h0c-2.77,1.18-5.21.15-7.57-1.9a35.7,35.7,0,0,0-3.45-2.45l-.28-.19-.7-.58a.94.94,0,0,0-.09-.12c-2.6-3.72-5.06-1.22-7.54.14l0,0a.76.76,0,0,0-.73.08.39.39,0,0,0-.1.08l-.9,1.19-.58.11-.1.1a32.39,32.39,0,0,1-8.12,7,.9.9,0,0,0-.23-.08,1,1,0,0,0-.65.1,1.2,1.2,0,0,0-.21.13,1.88,1.88,0,0,0-.1.47c-3.49,2.36-7.89,2.84-11.27,5.43-.42.47-.86.94-1.29,1.41a.76.76,0,0,0-.14.61.14.14,0,0,0,0,.09,1.59,1.59,0,0,0-.13,2.49c3.08,2.39,1.23,4.25-.51,6.09a32.94,32.94,0,0,1-2.87,2.52l-.32.28c-.71.06-1.48-.11-2,.56l-.1-.06a.64.64,0,0,0,0,.07l-5.67.73a.31.31,0,0,1,0-.08.47.47,0,0,0-.1.1,4,4,0,0,1-2.82.53l-.49.19-1.38.52a.7.7,0,0,0-.74,0c0,.14,0,.28,0,.41l-.06,4.89c-.17.25-.34.5-.52.74l-.06.08c0,2.75,0,5.5,0,8.24,0,.88-.52,2.09,1,2.38l.22-.09a.69.69,0,0,0-.1.19,3.12,3.12,0,0,0,2.12.46l.64.17h0l6.07,1.63.17.05.35.19a4,4,0,0,1,.76-.19h2.4l.21,0a0,0,0,0,0,0,0h-.19a.66.66,0,0,1,.17-.12c.41-.24,1-.26,1.29-.64a1,1,0,0,0,.2-.42c1.9.39,3-.73,4.07-2,1.49-1.91,3.23-3.63,4.38-5.79h.06l0-.18,1.4-2a.31.31,0,0,1,.1-.05h0s0,0,0,0c2.11-3.18,5.84-3.93,8.8-5.83l.06.06h0l.14.06a1.52,1.52,0,0,0,.42.06,1.56,1.56,0,0,0,.37,0,1.73,1.73,0,0,0,.83-.72c.05-.1.09-.2.13-.3s0-.06,0-.09h0a1.6,1.6,0,0,0,0-.49l3.09-1.27h0a6.07,6.07,0,0,0,3.46-.61h.06c4.46-.28,8.22,2.12,8.94,5.64a1.91,1.91,0,0,1,.06.33,8,8,0,0,0,2.24,1.24c2.56.46,5.22.52,4.58,4.42-.23,1.36,1.22.8,2,.94l1.16,0a2,2,0,0,0-.76.35c.57-.11,1.16-.19,1.72-.34h0a13.18,13.18,0,0,0,1.41-.07,6.16,6.16,0,0,0-.95-.07,4.28,4.28,0,0,0,.44-.2,3.09,3.09,0,0,0,.17-.29h0a1.69,1.69,0,0,0,.34-.1h0c.54,0,.81-.06.82-.3s-.14-.5-.47-.9a52.42,52.42,0,0,0-6.29-6,0,0,0,0,0,0,0c-.29-.25-.58-.52-.86-.78-1.07-1.58-2.93-2.62-3.29-4.69l-.06,0h0a.36.36,0,0,1,0-.11v-3.44l4.55,2.3h0a5.34,5.34,0,0,0,2.56,1.45l.24.15,9,5.78c1.56,3.1,1.77,6.94,4.67,9.31a3.8,3.8,0,0,0,.25,1,2,2,0,0,0,.19.35,1.62,1.62,0,0,0,.84.61l.13,0-.1-.11-.56-.57c0-.25,0-.51-.05-.76.15-1.1-.83-2.42.67-3.23,2.7-.28,5.46.43,8.15-.07a3.32,3.32,0,0,0,1.6,0,1.74,1.74,0,0,0,1.07-.78,6.73,6.73,0,0,1,.65-.75c2-.63,4.34-.87,3.92-3.87,0-.16-.05-.32-.09-.5l.06-4,.27-.36h0c2.09-2.81,5.13-4.25,8.23-5.62l.12,0a9.78,9.78,0,0,0,4.14-1.86l.38-.19h0c2.59-1.16,5.06-.2,7.81.5-1.46,1.82-3.4,2.79-4.17,5l3.77.64h.06l0,0,2.7,1.16.35.22a23.77,23.77,0,0,1,3.27,2.12,3.26,3.26,0,0,1-.73,5.66l-.24-.17a1.61,1.61,0,0,0-.81.15l-.64-.4-.06,0a.63.63,0,0,0-.07-.12c-.1-.16-.21-.18-.35,0a.47.47,0,0,0-.1.1l-4.44-.14-.16,0a.14.14,0,0,0,0-.06,21.29,21.29,0,0,0-10.13,0s0,0,0,0h-.09c-.81.05-1.68-.2-2.36.4l-.2.2-1.34.77s0,0,0,0c-1.06.49-2.1,1-3.18,1.49-2.78,1.23-3.74,3.12-2.26,6a18.67,18.67,0,0,1,.84,2.07h0l.12.3.54.52.24.23,1.08,1.53.05.07,3.09,4.54h0l.36.53c2,2.91,4.22,3.31,6.92.87a16.45,16.45,0,0,1,2.8-1.64h0c.75.28.76,1,.95,1.62a29,29,0,0,0,.62,7.76.92.92,0,0,0-.42.29,4.84,4.84,0,0,0-.41,2.73l.06.24a6.3,6.3,0,0,0-3.76.91l3.65,3.28h0a0,0,0,0,0,0,0,.83.83,0,0,1-.07.13,1.16,1.16,0,0,0,.8.87h0a89.11,89.11,0,0,0,6.6,9.47l-.09.13c-.07,1.08.24,1.9,1.41,2.17l.22,0,7.76,11.43c1.74,3.39,4.43,6.31,5.24,10.15a8.52,8.52,0,0,1,.16.88c-.21,2.54,1.35,3.8,3.38,4.72l1.32-.14.06.05a.08.08,0,0,0,0-.05l.62.06h0l1.25.12c2.53-.39,4.54-2.08,6.93-2.8l.21-.07,2.84-2,2-1.24.67-.05.12-.1,5.22-4.43h0a13.74,13.74,0,0,0,5.38-3.8,2.77,2.77,0,0,0,.48-.59h0c.58-1,.08-1.93-.56-2.88l-4.58-6.78h0l-.74-.69a5.85,5.85,0,0,1-3.29,0,7.15,7.15,0,0,1-6.58-3.47l-.12-.33c-.78-2.21-1.53-4.43-3.2-6.19-1.32-2.53.31-2,1.63-1.79l.2,0,.78.38a3.26,3.26,0,0,1,.4.24c3.29,2,5.78,5.07,9.36,6.62l.2-.11-.12.19a2.42,2.42,0,0,0,2.1.43l.55.11,3.17.66h0l.08,0,4.16,2s0,0,0,0l2.64,1.82.09.06,1.86,1.48.11.15c1.53,2.11,4,3.2,5.75,5h0c.12.12.23.25.34.38l0,.07a6.35,6.35,0,0,1,.68.39h0l.94.93a2,2,0,0,1,.28.89l.72.29c-.06.81.54,1,1.13,1.18,0,.38.07.77.11,1.16a3.68,3.68,0,0,0,0,.47l.19-.18c.36.57.73,1.15,1.08,1.73l.26.8c1,3.06,2,6.11,3,9.17h-.55a.55.55,0,0,0,.15.08h0a.52.52,0,0,0,.44,0,11.39,11.39,0,0,0,1.48,2.71c.73.79.61-.19.7-.59a1.86,1.86,0,0,1,.45-.39l0,0,.08,0,.05-.2c.11-.68-.12-1.44.24-2.06C403,254.1,402.93,254,402.9,253.84ZM259.27,131.3a2.6,2.6,0,0,1-.15.28l-.11-.05Zm-.59-6.78-.12-.09h0Zm21.61,59.6h0Zm20-.69a.22.22,0,0,0,0,.08h-.08Zm2.2-68.47.23,0s0,0,0,0Z" class="cls-6"></path><path d="M104.83,226.38l1.14-5c.27-.62.54-1.24.8-1.86l1.26-1.48c0-.08.08-.17.13-.25,2-3.66,4.48-7,6-11a.58.58,0,0,0,.14,0,1.63,1.63,0,0,0,.3.51.86.86,0,0,0,.13.14,2.17,2.17,0,0,1,0-.26l0-.5,4.7-7.86c.77-1,1.55-2.07,2.31-3.1a1,1,0,0,0,.24.31l.1.11,0-.24c0-.19,0-.37,0-.56.2-.55.39-1.1.58-1.65,0-.14,0-.27.07-.41s.05-.31.08-.46a1,1,0,0,0-.21.14,1.39,1.39,0,0,0-.4.4c-.83-.43-1.55,0-2.26.66-.81-.12-1.41,1-2.35.44.08-1.54,1.39-2.38,1.91-3.63l8.66-6.61h.1c.18,0,.36,0,.54,0a1.39,1.39,0,0,0,.07-.49c1.88-1.26,4.12-2.1,5.14-4.37l.14-.25-.11,0c.56-3.21-.58-6.08-1.77-8.94a9.57,9.57,0,0,1,.78.78c-.31-.44-.65-.86-1-1.3a1.59,1.59,0,0,1-.61-1.45l-.23-.27-.37-.42c0-.66,0-1.32-.05-2,.17-.27.35-.55.51-.83l.3-.49c-.08-.72,1.68-2.21-.8-2a.75.75,0,0,1-.07.12l-1.33,2.33c-1.05,1.23-2.25,2.35-2.69,4a19.42,19.42,0,0,0-3.33,5.45L122,176.22l-.76,1.28A50,50,0,0,0,115.93,188c-2.54,4.24-3.93,9-5.79,13.51l-.84,3.15a2.76,2.76,0,0,0-.61,2.16c-.93,1-.35,2.77-1.91,3.38l-.09-.05-.23.31a.72.72,0,0,1,.19,0h.07a.62.62,0,0,1,0,.13c0,.27-.09.54-.14.82-.42,2.69-.86,5.39-1.29,8.08-1.11,1.64-1,3.54-1.17,5.36a24.14,24.14,0,0,0-.84,6.38l-.27.7c-.11.29-.23.58-.35.88,0,.46.1.91.14,1.37l-.21,3-.43.4,0,0c0,1.27,0,2.54,0,3.82-.07.66-.14,1.32-.2,2s-.66,1.44.11,1.74l.22.07a8.42,8.42,0,0,0,0,1.23c.32-.21.43-.61.35-1.18l.87-6.26a2.17,2.17,0,0,1,.46-.4h0a1.3,1.3,0,0,1,.1-.15,1.67,1.67,0,0,1-.08-.32c0-.88.09-1.77.14-2.65-.06-.69-.11-1.37-.16-2.06.1-1.1.2-2.2.31-3.29,0-.05,0-.09,0-.14s-.05-.32-.07-.49c0,0,0,0,0,0A5.36,5.36,0,0,0,104.83,226.38Z" class="cls-7"></path><path d="M232,193.28a1.48,1.48,0,0,0-.13-.08,1.71,1.71,0,0,0-.09.3Z" class="cls-2"></path><path d="M231.75,193.14l.1.06a.93.93,0,0,0,.05-.1Z" class="cls-2"></path><path d="M358.14,320a8.9,8.9,0,0,0,.05-1.55A3.73,3.73,0,0,0,358.14,320Z" class="cls-2"></path><path d="M403.18,254l.18.05-.11-.12A.23.23,0,0,0,403.18,254Z" class="cls-2"></path></svg>