<svg viewBox="0 0 1080 1080" xmlns="http://www.w3.org/2000/svg" data-name="Layer 1" id="Layer_1"><defs><style>.cls-1{fill:#e3a86f;}.cls-2{fill:#f2d1a5;}.cls-3{fill:#381932;}.cls-4{fill:#c48a59;}.cls-5{fill:#c38a59;}.cls-6{fill:#754570;}.cls-7{fill:#fff;}</style></defs><path d="M784.91,399.41c3.32,3.21,3.18,7.39,3.18,11.51q0,129,.08,257.92c0,11.46-6,18.16-15.23,23.46Q714.21,726,655.66,760,604.9,789.27,554.1,818.53c-4.32,2.49-8.64,4.93-13.93,4.13q-.07-136.45-.16-272.92c0-3.76.94-7.76-1.83-11.1,4.64-.08,8.29-2.61,12.08-4.81q39.86-23.1,79.7-46.18c38.93-22.49,77.83-45,116.88-67.31C759.41,413.16,771.45,405,784.91,399.41Z" class="cls-1"></path><path d="M538.18,538.64C541,542,540,546,540,549.74q.12,136.46.16,272.92c-11.91.18-20.32-7.91-29.64-13.26C441.63,769.91,373,729.93,304.22,690.26c-8.3-4.79-12.19-11.72-12.19-20.9q-.11-129.23,0-258.47c0-4.15.37-8.21,3.44-11.45a17,17,0,0,1,3.06,1.07q40.69,23.52,81.33,47.1a8.77,8.77,0,0,0,.12,1.53q-.12,51.14-.25,102.28c0,6.53,3.41,10.69,8.79,13.8,16.63,9.61,33.13,19.45,49.84,28.92,11.11,6.28,14,4.43,14-8.33q.17-47.84.34-95.66c2.43,1.21,4.93,2.3,7.29,3.64Q499.1,516.19,538.18,538.64Z" class="cls-2"></path><path d="M780.06,205.75c-.06-8.42-3.72-16-5.75-23.95-2.2-8.6.76-16.48,7.45-18.62,8.48-2.71,15,1,18,11q9.75,33.2,18.95,66.55c3,10.81-2.56,17.23-13.63,18.33-21.09,2.08-42.33.25-63.39,2.84-4.28.52-8.71.66-13-1.2-6.53-2.84-9.52-7.7-8.08-14.46,1.37-6.45,5.33-10.28,12.67-10.74,11.73-.75,23.45-1.68,37.43-1.34-10-9-19.88-14.85-29.44-20.83A371.79,371.79,0,0,0,593.4,160c-73.56-10.12-144.59-.13-212.28,31-77.53,35.68-136.65,91.15-178,165.77A370.69,370.69,0,0,0,160.18,486Q144.74,595.42,190,696.88c5.16,11.6,11.35,22.61,17.13,33.86,4.53,8.82,2.9,16.26-4.06,20.1-7.32,4-13.68,1.94-18.92-7.23a406.55,406.55,0,0,1-47.63-130.19c-5.58-31-8.1-62.2-6.24-93.55,3.09-52,14.54-102,36.41-149.55a411.44,411.44,0,0,1,97.57-133.77c37.58-34.23,80.41-60.25,127.72-79a401.85,401.85,0,0,1,195.76-24.73,413.63,413.63,0,0,1,138.15,41.43,369.35,369.35,0,0,1,45.35,27c2.66,1.85,5,4.37,8.48,4.89l1,.65Z" class="cls-3"></path><path d="M300,874.36c.14,8.41,3.76,16,5.79,23.94,2.2,8.59-.8,16.49-7.49,18.61-8.24,2.6-15-.94-17.72-10.27q-10.06-34-19.41-68.12c-2.69-9.84,3-16.33,13.07-17.49,21.63-2.49,43.44-.16,65-2.89,4-.5,8.16-.52,12.18,1.23,6.54,2.83,9.5,7.72,8.06,14.46-1.38,6.44-5.32,10.44-12.69,10.69-11.73.4-23.4,2.13-35.07,1.31-.65,2.9,1.19,3.57,2.41,4.45a383.69,383.69,0,0,0,162,68.13,359.41,359.41,0,0,0,81.29,5.14C634,919.22,704,895.49,765.94,850.1c50.52-37,90.25-83.68,118-140a383.26,383.26,0,0,0,36.64-123.4c9.57-77.29-4-150.38-38.24-220-3-6.17-6.71-12-9.77-18.18-4.11-8.28-2.28-15.62,4.48-19.34,7.07-3.9,13.49-2,18.42,6.6a401.39,401.39,0,0,1,46.35,122c6.6,32.72,9.75,65.79,8.07,99.12-2.64,52.3-13.94,102.65-35.52,150.58a412.84,412.84,0,0,1-96.75,134.37,401.27,401.27,0,0,1-80.23,57.55c-40.58,22.31-83.65,37.7-129.31,45.22a407.5,407.5,0,0,1-114.89,2.71,419,419,0,0,1-134.54-39.3,380.88,380.88,0,0,1-49.79-29.22c-2.67-1.84-5-4.37-8.46-4.94l-1-.61Z" class="cls-3"></path><path d="M379.82,447.61q-40.65-23.57-81.33-47.1a17,17,0,0,0-3.06-1.07c.8-5.36,5.13-7.62,9.1-9.92Q416.06,325,527.63,260.65c7.49-4.32,15.34-5.24,22.83-1,25.62,14.52,51,29.41,76.48,44.18.41.24.59.88.87,1.33-4.1,2.19-8.28,4.26-12.3,6.58Q497.64,379.65,379.82,447.61Z" class="cls-4"></path><path d="M538.18,538.64q-39.1-22.42-78.22-44.85c-2.36-1.34-4.86-2.43-7.29-3.64a6.48,6.48,0,0,1-.05-1.32Q548.83,433.33,645,377.77c18.07-10.47,36.7-20,53.91-31.95,27.25,14.36,53.61,30.27,80.08,46,2.77,1.64,5.33,4,5.89,7.61-13.46,5.57-25.5,13.75-38.07,20.93-39.05,22.28-78,44.82-116.88,67.31q-39.88,23-79.7,46.18C546.47,536,542.82,538.56,538.18,538.64Z" class="cls-5"></path><path d="M698.94,345.82C681.73,357.76,663.1,367.3,645,377.77q-96.1,55.73-192.41,111.06c-10-3.24-18.06-10.19-27.34-14.85-15.4-7.74-29.15-18.52-45.34-24.84a8.77,8.77,0,0,1-.12-1.53q117.84-68,235.69-135.87c4-2.32,8.2-4.39,12.3-6.58,9.63,1.89,16.92,8.45,25.23,12.91,14.65,7.85,28.89,16.48,43.26,24.87C697.37,343.56,698.07,344.84,698.94,345.82Z" class="cls-3"></path><path d="M379.94,449.14c16.19,6.32,29.94,17.1,45.34,24.84,9.28,4.66,17.3,11.61,27.34,14.85a6.48,6.48,0,0,0,.05,1.32q-.18,47.83-.34,95.66c-.05,12.76-2.9,14.61-14,8.33-16.71-9.47-33.21-19.31-49.84-28.92-5.38-3.11-8.81-7.27-8.79-13.8Q379.86,500.27,379.94,449.14Z" class="cls-6"></path><path d="M780.06,205.75l.6,1-1-.65Z" class="cls-7"></path><path d="M300,874.36l-.57-1.07,1,.61Z" class="cls-7"></path></svg>