<svg viewBox="0 0 1296 144" xmlns="http://www.w3.org/2000/svg" data-name="Layer 1" id="Layer_1"><defs><style>.cls-1{fill:#febc13;}.cls-2{fill:#ed1b44;}.cls-3{fill:#f26a22;}.cls-4{fill:#f47921;}.cls-5{fill:#f5b21b;}.cls-6{fill:#e01e43;}.cls-7{fill:#3261ad;}.cls-8{fill:#f49d20;}.cls-9{fill:#273987;}.cls-10{fill:#6bcaf2;}.cls-11{fill:#4582c3;}.cls-12{fill:#2373ba;}.cls-13{fill:#ebeaea;}.cls-14{fill:#5f6469;}.cls-15{fill:#547dbf;}.cls-16{fill:#33a852;}.cls-17{fill:#f9bc15;}.cls-18{fill:#ea4435;}.cls-19{fill:#1db8ec;}.cls-20{fill:#22356c;}.cls-21{fill:#603393;}</style></defs><path d="M52.47,111.52c-15.65.32-31.11-9.56-37.64-24A41.34,41.34,0,0,1,34.32,33a40.3,40.3,0,0,1,18.15-4.17,1.36,1.36,0,0,1,.36,1.08c0,5,.09,10,0,14.94a4.24,4.24,0,0,1-1,2,39.8,39.8,0,0,0-7.13,19.68,40.82,40.82,0,0,0,3.24,20.12,46.15,46.15,0,0,0,3.88,6.93,4.69,4.69,0,0,1,1,2c.14,5,0,10,0,15A1.33,1.33,0,0,1,52.47,111.52Z" class="cls-1"></path><path d="M85.71,28.78c18.57-.32,35.71,13,40.21,31.31a41.43,41.43,0,0,1-28.24,49.69,40.75,40.75,0,0,1-12,1.74,1.32,1.32,0,0,1-.35-1.07c0-5-.11-10,0-15a4.66,4.66,0,0,1,1-1.94,40.08,40.08,0,0,0,6.64-16.08A40.7,40.7,0,0,0,87.29,48a12.3,12.3,0,0,1-1.88-3.21c-.16-5,0-10,0-15A1.32,1.32,0,0,1,85.71,28.78Z" class="cls-2"></path><path d="M85.71,45.12a42.24,42.24,0,0,1,7.88,18.72,39.65,39.65,0,0,1,.14,11.36A43.08,43.08,0,0,1,89,90c-1,1.83-2.18,3.5-3.31,5.22a5.74,5.74,0,0,1-1.56,2.28,43.26,43.26,0,0,1-13.32,10.28,2.1,2.1,0,0,1-1.54.38h-.11l-.09,0a3.1,3.1,0,0,1-.37-2.14q0-17.13,0-34.27,0-18.64,0-37.31a3.1,3.1,0,0,1,.37-2.14l.23-.11a6,6,0,0,1,2.79,1.11A40.59,40.59,0,0,1,82.18,40.7C83.49,42,85,43.29,85.71,45.12Z" class="cls-3"></path><path d="M69.09,32.22v75.86l-.1,0h-.11a10.66,10.66,0,0,1-4-1.78,41.6,41.6,0,0,1-11.61-9.85,8.61,8.61,0,0,1-.78-1.3c-1.12-1.87-2.39-3.63-3.43-5.56A42.75,42.75,0,0,1,44.75,77a41.51,41.51,0,0,1,2.92-23.5,58.34,58.34,0,0,1,4.81-8.37,11.58,11.58,0,0,1,2.14-2.91,42.38,42.38,0,0,1,12.61-9.54,3,3,0,0,1,1.65-.48A.5.5,0,0,1,69.09,32.22Z" class="cls-4"></path><path d="M52.48,95.18c1,1.1,1.93,2.22,2.93,3.3a42.1,42.1,0,0,0,13.47,9.63,38.33,38.33,0,0,1-16.41,3.41Q52.49,103.36,52.48,95.18Z" class="cls-5"></path><path d="M68.88,32.2a42.54,42.54,0,0,0-14,10.12c-.83.92-1.62,1.87-2.43,2.81q0-8.18,0-16.35A38.48,38.48,0,0,1,68.88,32.2Z" class="cls-5"></path><path d="M69.29,108.13A41.31,41.31,0,0,0,84.41,96.68c.42-.5.86-1,1.3-1.49v16.33A39.36,39.36,0,0,1,69.29,108.13Z" class="cls-6"></path><path d="M85.71,45.12a44.44,44.44,0,0,0-16.39-13,40.32,40.32,0,0,1,16.39-3.33Z" class="cls-6"></path><path d="M340.59,94.6H328.07c-.49-2.13-1-4.15-1.4-6.2-.18-1-.52-1.35-1.57-1.34q-7.39.07-14.79,0a1.53,1.53,0,0,0-1.73,1.24c-.61,1.79-1.29,3.56-2.06,5.29a1.73,1.73,0,0,1-1.23.92c-4.33.06-8.67,0-13.25,0,.23-.64.39-1.13.6-1.59C299,78.5,305.41,64.08,311.73,49.61a7.24,7.24,0,0,1,7.48-4.79c3.45.09,6.91,0,10.46,0,1.48,6.71,2.94,13.29,4.39,19.88q3.12,14.18,6.24,28.34a2.13,2.13,0,0,0,.29.56ZM320.26,59l-.38,0c-2.26,5.85-4.52,11.69-6.8,17.61h11C322.81,70.66,321.53,64.83,320.26,59Z" class="cls-7"></path><path d="M294.92,46c-.61,3.63-1.21,7.13-1.83,10.77a24.43,24.43,0,0,0-11.3-2.43,15.16,15.16,0,0,0-5.34,1.1c-3.07,1.31-3.34,4.13-.6,6,2,1.4,4.34,2.41,6.51,3.62,1.65.93,3.34,1.81,4.89,2.88,7.67,5.33,6.71,13.79,2.78,19.13-3.24,4.4-8,6.39-13.11,7.42a44,44,0,0,1-20.86-1.24c-1.4-.4-1.88-1-1.55-2.53.66-3,1.1-6,1.66-9.25,1.09.43,2.08.84,3.07,1.22,4.94,1.9,10,2.78,15.24,1.52a7.31,7.31,0,0,0,1.8-.7c3.07-1.67,3.38-4.74.56-6.76a62.78,62.78,0,0,0-5.78-3.27c-1.78-1-3.63-1.94-5.32-3.1-9.05-6.25-6.39-16.22-.57-21,4.52-3.7,9.85-5.09,15.5-5.46A34.67,34.67,0,0,1,294.92,46Z" class="cls-7"></path><path d="M187.55,53a56.18,56.18,0,0,1,12.53,11.06c3.54,4.15,6.55,8.6,7.74,14.13l6.57-16.73c2-5.08,4-10.16,5.92-15.27a1.87,1.87,0,0,1,2.13-1.4c4.21.06,8.42,0,12.83,0-1.51,3.55-3,6.92-4.4,10.29Q222.77,74,214.69,92.85a2.19,2.19,0,0,1-2.38,1.62c-3.79-.07-7.59-.08-11.38,0-1.26,0-1.51-.63-1.79-1.57q-5.38-18.53-10.8-37C188.11,55.07,187.89,54.25,187.55,53Z" class="cls-7"></path><path d="M254.29,44.94c-2.82,16.49-5.62,32.94-8.44,49.47H232.29c.36-2.25.7-4.46,1.08-6.66Q236.9,67,240.45,46.22c.13-.75.13-1.48,1.27-1.46,3.95.05,7.9,0,11.86,0A4.56,4.56,0,0,1,254.29,44.94Z" class="cls-7"></path><path d="M205.49,69.19c-1.6-2.52-3.09-5.31-5-7.77-6.31-8.16-14.89-12.83-24.65-15.59a4.69,4.69,0,0,1-.78-.21,8.72,8.72,0,0,1-1-.67c.37-.22.73-.62,1.1-.63,6.71,0,13.43-.11,20.15,0,3.85.08,5.24,1.52,6.06,5.43C202.78,56.31,204.16,62.84,205.49,69.19Z" class="cls-8"></path><path d="M473.65,50.66c0,12.11-11.17,26.39-28.07,26.39H429.29l-.8,5-3.79,24.28H404.46l12.17-78.19h32.79c11,0,19.72,6.16,22.92,14.71A21,21,0,0,1,473.65,50.66Z" class="cls-9"></path><path d="M485.31,73.14a28,28,0,0,1-27.7,23.46h-11.3l-4.71,29.32H421.47l3.23-19.55,3.8-24.28.79-5h16.29c16.88,0,28.07-14.28,28.07-26.39A21.32,21.32,0,0,1,485.31,73.14Z" class="cls-10"></path><path d="M473.65,50.66a26.62,26.62,0,0,0-12.3-2.93H433.89l-4.6,29.32h16.29C462.46,77.05,473.65,62.77,473.65,50.66Z" class="cls-11"></path><path d="M629.55,68.88l0,1.46a50.43,50.43,0,0,0,0,6.62v1.46a50.43,50.43,0,0,0,0,6.62v1.74c0,2.14-.58,4.33.62,6.34a.88.88,0,0,0,.47.62c1.84,2.32,4.56,2.56,7,.59a1.63,1.63,0,0,0,.83-.92c1.46-1.85.82-4,.85-6a11.65,11.65,0,0,0,0-2.89,37.46,37.46,0,0,0,0-5.19,11.65,11.65,0,0,0,0-2.89,37.46,37.46,0,0,0,0-5.19,10.83,10.83,0,0,0,0-2.9,38.27,38.27,0,0,0,0-5.46,10.83,10.83,0,0,0,0-2.9,37.46,37.46,0,0,0,0-5.19,11.73,11.73,0,0,0,0-2.9c0-1.83.4-3.68-.28-5.47a.52.52,0,0,0-.27-.57h0a3,3,0,0,0-2-2h0c-.11-.26-.34-.29-.58-.3-2.16-.9-3.9-.45-5.51,1.43a1.14,1.14,0,0,0-.59.9,34.52,34.52,0,0,0-2.36,4.51l-.5,1a28.75,28.75,0,0,0-2.34,4.55,53.8,53.8,0,0,0-3.36,6.43l-2.16,4.2-.52,1a26.18,26.18,0,0,0-2.32,4.61,21.13,21.13,0,0,0-1.7,3.27c-.19.36-.22.89-.85.75a25.59,25.59,0,0,0,1.24-4.43l.27-1a3.69,3.69,0,0,0,.23-2.36l0-.86a14.63,14.63,0,0,0,0-3.74l0-.87a10.36,10.36,0,0,0,0-2.61l0-.86a15.1,15.1,0,0,0,0-3.74c0-.29,0-.58,0-.87a10,10,0,0,0,0-2.62l0-.86a15.6,15.6,0,0,0,0-3.74c0-.28,0-.57,0-.86a10.83,10.83,0,0,0,0-2.9v-.86a15.6,15.6,0,0,0,0-3.74c0-.27.07-.54.1-.81l5.43-1,1.13-.21a43.11,43.11,0,0,0,6.08-1l.83-.14a4.21,4.21,0,0,0,1.72-.28,2.7,2.7,0,0,0,1.45-.25,9.38,9.38,0,0,0,2.92-.5l.83-.13a29,29,0,0,0,4.9-.84,4.89,4.89,0,0,0,2-.32,48.09,48.09,0,0,0,6.07-1l1.14-.07.13,0,.14,0,.41,0A4.45,4.45,0,0,1,653.54,36c-.39,2.18-.7,2.21,1.72,1.7a9.69,9.69,0,0,1,5.16,1.23l.57.6c1.09,1.46.94,3.17,1,4.84a4.14,4.14,0,0,0-.08,1.75,35.81,35.81,0,0,0-.47,5.76l0,.88-.07,1.45a1,1,0,0,0-.08.86c-.39,1,0,1.31.95,1.25a5.63,5.63,0,0,0,2.33-.42.6.6,0,0,0,.61-.23l4.3-1.22,2.54.09h0c.14.25.38.25.62.27a7.57,7.57,0,0,1,2,2l.57,1.74a11.2,11.2,0,0,1-.91,6,16.69,16.69,0,0,1-4.62,4.28l-5.46,1.76-1,.21a5,5,0,0,0-1.86.42c-1.66.1-2.12.53-2.18,2l-.06.56-.06.87a47.5,47.5,0,0,0-.71,6.62l-.11,1.18a37.41,37.41,0,0,0-.63,6.33,7.31,7.31,0,0,0-.31,2.9,23.35,23.35,0,0,0-.49,4.33c-.26,1.62-.51,3.24-.77,4.86a.14.14,0,0,0-.16.09c-.18,0-.27,0-.21.24l-.37,1.15-.29.32c-.68.39-1.35.79-2,1.19-.19,0-.26.07-.27.23v0l-.89.15a7.71,7.71,0,0,0-2.58,0,1,1,0,0,0-.87.06c-.59.05-1.47-.75-1.68.47a7.85,7.85,0,0,1-1.87,3.6l-.49.33c-1.54.83-3.28.44-4.89.79a6.75,6.75,0,0,0-2.33,0,40.73,40.73,0,0,0-6,0,5.33,5.33,0,0,0-2,0,43.63,43.63,0,0,0-6.05,0,5.33,5.33,0,0,0-2,0,43.63,43.63,0,0,0-6,0,5.38,5.38,0,0,0-2,0,39.28,39.28,0,0,0-6,0,5.14,5.14,0,0,0-2,0,37.29,37.29,0,0,0-6.34,0,4.53,4.53,0,0,0-2,0,34.92,34.92,0,0,0-6.05,0,3.78,3.78,0,0,0-2,0,39.16,39.16,0,0,0-6,0,5.06,5.06,0,0,0-2,0,48.13,48.13,0,0,0-5.76,0l-2.57-.13a5.21,5.21,0,0,1-2.33-2.22l-.11-1.46a58.48,58.48,0,0,0,0-6.62,2.78,2.78,0,0,0,0-1.46,42,42,0,0,0,0-6.91,1.58,1.58,0,0,0,0-1.17,38.9,38.9,0,0,0,0-6.91,1.56,1.56,0,0,0,0-1.18,44.15,44.15,0,0,0,0-6.9,2.89,2.89,0,0,0,0-1.46,48.75,48.75,0,0,0,0-6.62V64.83a52.07,52.07,0,0,0,0-6.61V56.75a56.41,56.41,0,0,0,0-6.63l.09-1.44a.1.1,0,0,0,.05-.15l.24-.43a9.7,9.7,0,0,1,2.61-2.54l1.44-.41a36,36,0,0,0,5.92-1l.43,0a5.57,5.57,0,0,0,2.29-.33,1.63,1.63,0,0,0,1.18-.2,10,10,0,0,0,3.24-.58l.5-.05a22,22,0,0,0,4.9-.84,4,4,0,0,0,2-.31,51.4,51.4,0,0,0,6-.94.54.54,0,0,0,.64-.34,32.66,32.66,0,0,0,2.7-5l.36-.63c.91-1.43,1.49-3.07,2.72-4.3.2,0,.34-.12.34-.36a7,7,0,0,1,5.35-.23l.27.55-.53.09a4.41,4.41,0,0,0-4.75,1c-1.39,1.17-2,2.84-2.69,4.4a19.84,19.84,0,0,0-1.94,3.71c-.24.41-.48.82-.73,1.23l-.54,1.12a31.73,31.73,0,0,0-2.37,4.6l-.32.57a32.74,32.74,0,0,0-2.47,4.64c-.14.28-.28.56-.43.84a11.75,11.75,0,0,0-1.39,2.62h0l-.3.59a7.39,7.39,0,0,0-1.08,2,30.45,30.45,0,0,0-2.39,4.56l-.28.59A27.53,27.53,0,0,0,588,68l-.32.57a18.73,18.73,0,0,0-2.07,4l0,0c-.21,0-.26.18-.27.36a2.38,2.38,0,0,0-.64,1.33v0l-.24.36a20.24,20.24,0,0,0-2,3.72l-.5.92a38.38,38.38,0,0,0-2.38,4.59l-.29.56a27.87,27.87,0,0,0-2.58,4.93,6.19,6.19,0,0,0-1.2,2.3,11.13,11.13,0,0,0-1.42,2.57l-.49.93c-1.34,2-2,4.13-.45,6.38a1.37,1.37,0,0,0,.67.82c2.12,2,4.65,2,6.93,0a.82.82,0,0,0,.54-.61,22,22,0,0,0,2.36-4.28.88.88,0,0,0,.33-.75,35.45,35.45,0,0,0,2.7-5l.14-.36a24.68,24.68,0,0,0,2.39-4.55l0,0c.2,0,.24-.18.24-.35a1.85,1.85,0,0,0,.58-1.16h0a.6.6,0,0,0,.31-.57,17.69,17.69,0,0,0,2-3.75l.33-.57A36.29,36.29,0,0,0,595,76c.09-.19.17-.38.25-.57a33.08,33.08,0,0,0,2.69-5,8.69,8.69,0,0,0,1.33-2.63,6.87,6.87,0,0,0,1.41-2.6l.52-.88a25.55,25.55,0,0,0,2.33-4.79c.26,0,.32-.18.35-.39l1.74-3,.29.06v14.5q0,3.15,0,6.32l0,.61v.55l0,.6V85l0,.6v.55l0,.6v6.33a1.58,1.58,0,0,0,.13,1.11v0c.39,2.33,1.67,3.54,4.18,4,2.12.32,3.51-.81,4.7-2.36l.51-.73a14.11,14.11,0,0,0,2-3.74l0,0,.33-.6a4.79,4.79,0,0,0,.85-1.74,16.7,16.7,0,0,0,2-3.73l.49-.91a42.51,42.51,0,0,0,2.47-4.85l.18-.37a29.55,29.55,0,0,0,2.54-4.86,5.77,5.77,0,0,0,1-2,14.94,14.94,0,0,0,1.79-3.43l.2-.2Zm22.84,14.45a11.33,11.33,0,0,0,.35-3.18l.14-1.16a8.44,8.44,0,0,0,.23-2.3l.09-.88c.16-1.54.33-3.07.49-4.61l.3-2.9.6-6,.08-1.45a34.46,34.46,0,0,0,.61-6.33,4.62,4.62,0,0,0,.24-2.33,26.06,26.06,0,0,0,.53-4.9,18.08,18.08,0,0,0,.38-4.34,4.05,4.05,0,0,0-2.73-4.4c-.62-.13-.5.3-.53.56-.13,1.38-.23,2.75-.35,4.12a18.8,18.8,0,0,0-.42,4.36,9.63,9.63,0,0,0-.3,3.16,1.09,1.09,0,0,0-.12.88c-.14,1.25-.27,2.49-.41,3.74l0,1.17a3.65,3.65,0,0,0-.21,1.7l-.07.61a48.64,48.64,0,0,0-.58,6,85.14,85.14,0,0,0-.94,9.83,27.77,27.77,0,0,0-.56,5.45c-.43,1.14-.12,2.35-.33,3.51a18.78,18.78,0,0,0-.45,4l-.06.87a9.37,9.37,0,0,0-.31,3.16,1.55,1.55,0,0,0-.15,1.17,6.73,6.73,0,0,0-.17,2.28,16.86,16.86,0,0,0-.47,3.08c-.1.46.11.72.61.71,1.18,0,2.29-.16,2.82-1.45a18.3,18.3,0,0,0,.86-6.06,9.62,9.62,0,0,0,.38-3.2,19.5,19.5,0,0,0,.43-4Zm15.27-25.92A4,4,0,0,0,663.94,62a4.05,4.05,0,0,0,4.67,3.27,3.84,3.84,0,0,0,3-5A3.69,3.69,0,0,0,667.66,57.41Z" class="cls-12"></path><path d="M569.58,48.53l.24-.43Z" class="cls-13"></path><path d="M669.09,59.39,670,60.5c.06,1,.08,2-.95,2.68a2.24,2.24,0,0,1-3.11-.81,2.16,2.16,0,0,1,.89-2.95,3.37,3.37,0,0,1,1.68-.32l.05,0,.07,0Z" class="cls-12"></path><path d="M669.09,59.39l-.44-.27Z" class="cls-13"></path><path d="M809.28,73.36V93.48h-6.39V43.79h16.93a15.28,15.28,0,0,1,11,4.31,14.36,14.36,0,0,1,0,21,15.21,15.21,0,0,1-11,4.23Zm0-23.45V67.26H820a8.64,8.64,0,0,0,6.48-14.54l-.16-.17A8.4,8.4,0,0,0,820,49.91Zm40.79,8.46q7.09,0,11.18,3.79t4.09,10.36v21h-6.1V88.76H859q-4,5.83-10.55,5.83a13.7,13.7,0,0,1-9.4-3.33,10.65,10.65,0,0,1-3.78-8.32,10.11,10.11,0,0,1,4-8.4q4-3.12,10.65-3.12a19,19,0,0,1,9.37,2.07V72a7.28,7.28,0,0,0-2.64-5.64,9,9,0,0,0-6.17-2.33A9.77,9.77,0,0,0,842,68.57L836.35,65Q841,58.37,850.07,58.37Zm-8.26,24.7a5.13,5.13,0,0,0,2.11,4.17,7.83,7.83,0,0,0,5,1.66,10.17,10.17,0,0,0,7.18-3,9.31,9.31,0,0,0,3.18-7c-2-1.58-4.77-2.38-8.33-2.38a10.74,10.74,0,0,0-6.49,1.88A5.63,5.63,0,0,0,841.81,83.07Zm58.58-23.59-21.32,49h-6.58l7.91-17.14-14-31.85h6.94l10.14,24.43h.13l9.86-24.43Z" class="cls-14"></path><path d="M789.62,74.78a34.26,34.26,0,0,0-.49-5.81H762.2V80h15.42a13.16,13.16,0,0,1-5.7,8.68v7.14h9.21C786.52,90.82,789.62,83.47,789.62,74.78Z" class="cls-15"></path><path d="M762.2,102.68c7.71,0,14.2-2.53,18.93-6.9l-9.21-7.14a17.31,17.31,0,0,1-25.74-9H736.7V87A28.54,28.54,0,0,0,762.2,102.68Z" class="cls-16"></path><path d="M746.18,79.59a17.18,17.18,0,0,1,0-10.93V61.31H736.7a28.57,28.57,0,0,0,0,25.64Z" class="cls-17"></path><path d="M762.2,56.89a15.5,15.5,0,0,1,11,4.28L781.31,53a27.49,27.49,0,0,0-19.11-7.44,28.54,28.54,0,0,0-25.5,15.73l9.48,7.36A17.06,17.06,0,0,1,762.2,56.89Z" class="cls-18"></path><path d="M1247.94,53.69l1.39-1.11c4.82-4.1,11-3.65,15.12,1.21.41.48.62.52,1,.1.27-.31.59-.55.86-.86a10.5,10.5,0,0,1,18,7.45c.07,10,0,19.87,0,29.83,0,3.53-2.18,5.75-5.68,5.75a41.43,41.43,0,0,0-4.17,0c-1.42.13-1.83-.32-1.83-1.81.07-9.71,0-19.42,0-29.13V64c0-2.25-.94-3.19-3.09-3.29a3.16,3.16,0,0,0-3.5,3.05c0,.45,0,.93,0,1.38V90.24c0,3.67-2.11,5.82-5.79,5.79-1.87,0-4.4.83-5.48-.38-.93-1-.31-3.51-.31-5.34V64.47c0-3-2-4.61-4.54-3.57a3.44,3.44,0,0,0-2.12,3.6c0,8,0,16.06,0,24.11v1.9a5.3,5.3,0,0,1-5.58,5.52c-1.39,0-2.78-.11-4.16,0s-2-.28-1.91-1.87c.07-13.63,0-27.26,0-40.92,0-.59,0-1.15,0-1.73-.07-.77.25-1,1-1,3.19,0,6.35,0,9.54,0,.79,0,1.18.21,1.11,1.07A15,15,0,0,0,1247.94,53.69Z" class="cls-19"></path><path d="M1174.42,72.48V86.7c0,6.17-3.26,9.36-9.43,9.4-2.7,0-5.44,0-8.15,0-5.48-.07-9.5-3.71-9.78-9.19a110.41,110.41,0,0,1,0-11.79,10,10,0,0,1,10.26-9.64c1.49,0,3,0,4.51,0s2-.87,2-2.26-.63-2-2-1.94c-1.56,0-3.12,0-4.69,0-3.81-.07-5.93-2.15-5.89-5.9,0-1.52-.69-3.57.31-4.47s2.84-.28,4.34-.28c3.88,0,7.73,0,11.61,0a6.64,6.64,0,0,1,7,7C1174.46,62.53,1174.42,67.52,1174.42,72.48Zm-10.61,7.87V78.62c0-3.54,0-3.54-3.54-3.4A2.57,2.57,0,0,0,1157.5,78c0,1.46,0,2.88,0,4.33,0,2.5,1.15,3.16,4.75,3.26,2.67.07,1.32-1.8,1.56-2.84A17.91,17.91,0,0,0,1163.81,80.35Zm41.48-11.65c0,5.31.07,10.65,0,16-.07,4.09-1,7.81-5,10a11.19,11.19,0,0,1-5.13,1.39c-4,.07-8,0-12,.07-1,0-1.18-.35-1.14-1.22.07-1.45,0-2.88,0-4.33a5.07,5.07,0,0,1,5-5c1.8-.07,3.57,0,5.38,0,1.45,0,2.25-.59,2.25-2.15s-.76-2.15-2.22-2.18c-2.43-.07-4.85.28-7.25-.42a9.65,9.65,0,0,1-7.24-8.91c-.21-6.76-.07-13.52-.11-20.29,0-.76.24-1,1-1,2.84,0,5.65.07,8.49,0,1.25,0,1.08.66,1.08,1.43V67.31c0,2.22,1,3.4,3,3.47,2.29.07,3.3-.87,3.3-3.19,0-5.13,0-10.3,0-15.43,0-1.21.31-1.56,1.53-1.53,2.53.11,5.09.14,7.63,0,1.38-.07,1.59.45,1.56,1.67C1205.25,57.74,1205.29,63.22,1205.29,68.7Zm-88.36,7.87v-17c0-5.55,3.4-9,9-8.95,3.64,0,7.28-.41,10.89.28a9.05,9.05,0,0,1,7.56,9.23c0,5,0,10,0,15.08,0,6.31-3.71,10.16-10,10.33-1.91.07-3.82,0-5.73,0-.86,0-1.24.25-1.21,1.18.07,1.39,0,2.78,0,4.16a5.06,5.06,0,0,1-5.13,5.17c-1.74,0-3.92.73-5-.28s-.28-3.15-.31-4.82C1116.89,86.18,1116.93,81.36,1116.93,76.57Zm10.47-8.49v3.29c0,3.92,0,3.92,3.92,3.57a2.4,2.4,0,0,0,2.53-2.67c0-1.94-.07-3.92,0-5.86.2-5.62-.84-5.06-5.41-5.1-.84,0-1.11.25-1.11,1.08C1127.43,64.26,1127.4,66.17,1127.4,68.08Z" class="cls-20"></path><path d="M1215.1,76.64c0-4.61,0-9.26,0-13.87,0-1.07-.25-1.52-1.43-1.49-1.56.07-3.64.52-4.5-.24-1.08-1-.25-3.16-.39-4.82v-.35c0-1.63-.52-3.54.18-4.75s2.81-.45,4.3-.83a12.69,12.69,0,0,0,7-4.82,7.92,7.92,0,0,1,4.82-3.12c1.07-.21,1.73-.07,1.66,1.31-.1,2,0,3.92,0,5.9,0,.83.28,1.11,1.11,1.07,1.38,0,2.77,0,4.16,0,.83,0,1.11.28,1.07,1.11,0,2.84,0,5.65,0,8.49,0,.8-.2,1.22-1.07,1.11a3,3,0,0,0-.52,0c-1.53.14-3.64-.69-4.44.35s-.28,3-.28,4.54c0,9.44,0,18.83,0,28.27,0,1.31-.35,1.73-1.67,1.63s-2.53,0-3.81,0a6.08,6.08,0,0,1-6.21-6.41Z" class="cls-19"></path><path d="M1011.07,121.19c-1.48-.14-3-.24-4.44-.43a49.24,49.24,0,0,1-41.39-36.34,49.15,49.15,0,0,1,8.28-41.94,49.24,49.24,0,0,1,70.69-8.36,47.24,47.24,0,0,1,17.32,30.67,47.75,47.75,0,0,1-11.2,39c-8,9.53-18.38,15-30.69,16.89-1.54.23-3.11.32-4.66.48ZM1002,56H990.09c-1.06,0-1.44.32-1.53,1.36a14.13,14.13,0,0,0,.06,3,3.5,3.5,0,0,0,3.5,3.07c.91,0,1.83,0,2.74,0,1.15,0,1.15,0,1.15,1.13V77.4a19,19,0,0,0,.66,5c1.22,4.58,3.89,7.85,8.52,9.21a19.06,19.06,0,0,0,11.57-.38c.89-.29.91-.29.91.66,0,2.64,0,5.27,0,7.91a4.23,4.23,0,0,0,4.16,4.28h.13c1.25,0,2.51,0,3.76,0a1.61,1.61,0,0,0,1.64-1.57V64.64c0-1.4,0-1.4,1.36-1.4h4.78c1.19,0,1.53-.37,1.53-1.57V59.32a3.43,3.43,0,0,0-3.61-3.57c-1.89,0-3.77,0-5.65,0a1.52,1.52,0,0,1-1.3-.58c-.7-.84-1.43-1.66-2.15-2.48q-6.15-7.11-12.33-14.19a5.07,5.07,0,0,0-4-1.91c-2.54,0-4.8,1.15-7.14,1.94a1,1,0,0,0-.29,1.71,7.14,7.14,0,0,0,.55.55l15.19,14.41c.18.17.52.33.43.6s-.49.2-.76.2H1002" class="cls-21"></path><path d="M1017.69,73.24c0,2.9,0,5.79,0,8.69a1.15,1.15,0,0,1-.88,1.26,13.93,13.93,0,0,1-5.8.7c-3.33-.32-5.19-2.29-5.48-5.67-.26-3.1-.07-6.2-.12-9.31,0-1.52,0-3,0-4.54,0-.63.21-.88.87-.88,3.5,0,7,0,10.5,0,.76,0,.92.31.92,1,0,2.93,0,5.85,0,8.77" class="cls-21"></path></svg>