<svg viewBox="0 0 1080 1080" xmlns="http://www.w3.org/2000/svg" data-name="Layer 1" id="Layer_1"><defs><style>.cls-1{fill:#381932;}</style></defs><path d="M914.42,539.79l-50-66.14a45.49,45.49,0,0,0-36.32-18H761.54V351.09a19.51,19.51,0,0,0-19.47-19.53H296.72a19.53,19.53,0,0,0-19.53,19.53v163.3H389a19.16,19.16,0,0,1,19.14,19.13v.2A19.16,19.16,0,0,1,389,552.84H277.19v13.69h76.49a19.15,19.15,0,0,1,19.14,19.14v.19A19.15,19.15,0,0,1,353.68,605H277.19v13.68h68.75a19.16,19.16,0,0,1,19.12,19.14V638a19.15,19.15,0,0,1-19.12,19.13H277.19v27.52a19.51,19.51,0,0,0,19.53,19.51h54.74a65.09,65.09,0,0,1,130.18,0H757.83a65.09,65.09,0,0,1,130.17,0h16.1a19.51,19.51,0,0,0,19.53-19.51V567.24A45.59,45.59,0,0,0,914.42,539.79ZM740.64,523.9C620.41,512.45,537,559.38,483.93,668.45h0c53-109.81,20.23-168.64-101.05-181.29h0c121.45,12.25,205.5-34.57,258.95-144.28h0c-52.64,109.06-20.55,167.8,98.82,180.94ZM812.84,590h-23a5.06,5.06,0,0,1,0-10.12h23a5.06,5.06,0,1,1,0,10.12Zm90.44-22.7H781.13a6.53,6.53,0,0,1-6.53-6.54V475.15a6.53,6.53,0,0,1,6.53-6.53h47A32.66,32.66,0,0,1,854,481.48l50,66.16a30.9,30.9,0,0,1,5.51,11.42A6.55,6.55,0,0,1,903.28,567.31Z" class="cls-1"></path><path d="M823,652.85a51.3,51.3,0,1,0,51.3,51.29A51.35,51.35,0,0,0,823,652.85Zm0,72.13a20.84,20.84,0,1,1,20.84-20.84A20.86,20.86,0,0,1,822.93,725Z" class="cls-1"></path><path d="M416.6,652.85a51.3,51.3,0,1,0,51.29,51.29A51.35,51.35,0,0,0,416.6,652.85Zm0,72.13a20.84,20.84,0,1,1,20.84-20.84A20.86,20.86,0,0,1,416.58,725Z" class="cls-1"></path><path d="M165.43,545.25H389a11.54,11.54,0,0,0,11.54-11.53v-.2A11.54,11.54,0,0,0,389,522H165.43a11.55,11.55,0,0,0-11.55,11.54v.2A11.54,11.54,0,0,0,165.43,545.25Z" class="cls-1"></path><path d="M365.23,585.86v-.19a11.55,11.55,0,0,0-11.55-11.55H97.25a11.54,11.54,0,0,0-11.53,11.55v.19a11.54,11.54,0,0,0,11.53,11.53H353.68A11.54,11.54,0,0,0,365.23,585.86Z" class="cls-1"></path><path d="M357.47,638v-.19a11.54,11.54,0,0,0-11.53-11.54H135.1a11.53,11.53,0,0,0-11.53,11.54V638a11.53,11.53,0,0,0,11.53,11.53H345.94A11.53,11.53,0,0,0,357.47,638Z" class="cls-1"></path></svg>