<svg viewBox="0 0 504 504" xmlns="http://www.w3.org/2000/svg" data-name="Layer 1" id="Layer_1"><defs><style>.cls-1{fill:#381932;}</style></defs><path d="M298.64,245.61a4.24,4.24,0,0,0-3.32.55c-3.33,2.38-6.56,4.93-9.71,7.55-7.53,6.27-15.4,11.88-25.18,14.09-8.77,2-16.83-1.45-21.89-9.27-4.3-6.67-3.67-14,1.81-21.11,7.08-9.12,13-11.42,22.1-8.45,7.09,2.31,14.25,2.61,21.25,0a13.56,13.56,0,0,1,12.72,1.31,31,31,0,0,0,21.89,4.23c1.05-.18,2.51-.94,2.83-1.78a47.28,47.28,0,0,0,2.31-8.58c.39-2.32-.79-3.75-3.22-4.62-8.43-3-16.75-6.34-25.13-9.46a14.16,14.16,0,0,0-4.67-1c-20.57-.07-41.15,0-61.73-.07a7.76,7.76,0,0,0-6.93,3.6,57.23,57.23,0,0,1-5.09,6.91c-.74.81-2.53.64-3.85.91-.25-1.41-1.07-3-.62-4.18.74-1.92,2.43-3.44,3.48-5.27,3.51-6.06,8.73-8.41,15.64-8.05,5.69.3,11.41.06,17.35.06,0-3.7-.2-6.82.09-9.9.14-1.41.87-3.38,1.95-4,7.36-4.16,12.14-10.63,16.31-17.64,8.41-14.17,13.44-29.63,17-45.61,1.34-6-.22-8.71-6.23-10.25a28.12,28.12,0,0,0-9.21-.47c-1.15.09-2.63,1.63-3.17,2.86-2.54,5.8-4.51,11.87-7.24,17.57-13.34,27.91-32.86,51-56,71.19a10.88,10.88,0,0,0-3.16,4.76c-2.1,7-3.44,14.29-5.86,21.18-9.41,26.71-24,50.5-41.47,72.65-1.6,2-2.17,3.52-1,6.2a275.72,275.72,0,0,1,10.34,26c3.54,11,6.21,22.24,9.28,33.46.56-.26,1.46-.65,2.34-1.09q25.14-12.67,50.28-25.37c17.45-8.77,31.4-20.88,39.14-39.41a47.59,47.59,0,0,1,8-12.07c8.93-10.42,20.52-17.24,32.73-23.1,1.2-.58,2.66-1.17,3.33-2.19C311.16,260.11,307.22,248.51,298.64,245.61Z" class="cls-1"></path><path d="M106.56,344.24c-2.84-7-6.15-13.76-9.24-20.64l-30.09,7.45v94.17c1.53-.83,2.51-1.33,3.45-1.88,15.24-9,30.43-18,45.75-26.81,2.67-1.54,3.25-3.19,2.82-6A206.78,206.78,0,0,0,106.56,344.24Z" class="cls-1"></path><path d="M231.29,167.73a5,5,0,0,0,.9-2.79c.82-13,1.55-26.08,2.38-39.11.14-2.21-.92-3.47-2.86-3.57q-6.26-.32-12.52-.05c-2.86.12-3.84,1.65-4,4.82-.94,15.75-2,31.51-3.66,47.2-.67,6.57-2.75,13-4.2,19.48l.72.63C215.79,185.48,223.58,176.64,231.29,167.73Z" class="cls-1"></path><path d="M97.9,313c17.91,30.91,28,63.86,28.93,99.31,6.12,1.07,7.79-.29,7.68-5.89-.66-33.46-10.68-64.09-27.94-92.53C104.13,309.88,102.33,309.72,97.9,313Z" class="cls-1"></path><path d="M133.2,341.77c-4-10.7-8.89-21.07-13.67-31.46-2.12-4.6-5.67-5.23-9.4-2,.41.76.67,1.32,1,1.83A187.74,187.74,0,0,1,134,362.18a180.16,180.16,0,0,1,6.5,44.59c0,1.19,1.09,2.37,1.67,3.56a22.13,22.13,0,0,0,3.29-3.35c.47-.71.16-2,.15-2.94C145.44,382.49,140.68,361.81,133.2,341.77Z" class="cls-1"></path><path d="M214.75,109.94c.15,2.3.36,4.59.48,6.15h19c-.61-4.87-.72-9.91-2-14.65a109.43,109.43,0,0,0-6.67-18.83,8.61,8.61,0,0,0-10.25-5c-2,.49-2.71,1.31-2.52,3.6C213.62,90.79,214.12,100.37,214.75,109.94Z" class="cls-1"></path><path d="M152.25,330c-3.92-9.92-8.8-19.47-13.46-29.08-1.79-3.68-3.81-3.84-6.56-1.08a250,250,0,0,1,21.1,50.39,248.28,248.28,0,0,1,9.7,53.9c4.13.42,4.1-2.18,4-4.75A217.91,217.91,0,0,0,152.25,330Z" class="cls-1"></path><path d="M336.86,257.88c3-.84,5.49-1.75,5.63-5.32.13-3.33-3.29-8.37-6.25-8.84-7.63-1.22-15-4.83-23-2.91a19.1,19.1,0,0,1-2.6-.09c-1.86.16-3.71.43-6.59.79,8.64,6.32,11.36,13.92,9.26,23.54C321.46,262.54,329.11,260,336.86,257.88Z" class="cls-1"></path><path d="M286.7,109.26c.71-9.08,1.5-18.21-2-26.91-1-2.55-2.67-5.33-4.84-6.81-1.65-1.14-4.68-.79-6.91-.27-.79.18-1.28,2.78-1.43,4.33-.35,3.71-.24,7.47-.65,11.17-.66,6-1.58,12-2.29,17.19l17.72,4.12A26.36,26.36,0,0,0,286.7,109.26Z" class="cls-1"></path><path d="M145.25,344.25c-4.73-13.07-10.84-25.64-16.45-38.37-1.12-2.54-2.91-4.53-6.2-2.23,17.2,32.88,28.58,67.05,29.1,104.14,4.27.5,5.47-.67,5.24-5.16A202.74,202.74,0,0,0,145.25,344.25Z" class="cls-1"></path><path d="M186,166c4,10.79,8.13,21.52,12.24,32.26l1.07.43c2.19-8.63,4.42-17.25,6.54-25.9a4.31,4.31,0,0,0-.56-2.48c-1.42-3.17-2.82-6.37-4.48-9.43-.47-.87-2-2-2.66-1.8a92.13,92.13,0,0,0-11.06,4A3.25,3.25,0,0,0,186,166Z" class="cls-1"></path><path d="M196.47,152.48c-4.21-7.1-8.55-14.44-15.83-19.4-5-3.45-9-3.06-12.84.82l14.61,24.21Z" class="cls-1"></path><path d="M348.38,238.07c5.12-.87,7.53-4.2,7.18-9.21l-25.85-5.6c-.88,4-1.75,8-2.68,12.21C333.93,237.65,341,239.33,348.38,238.07Z" class="cls-1"></path><path d="M436.28,116.09a108.71,108.71,0,0,0-19.67-3.57,114.37,114.37,0,0,0-23,.3,97.68,97.68,0,0,0-31.32,8.85c-9.1,4.41-17.13,10.22-23.25,18.41A41.83,41.83,0,0,0,330.47,169a55.61,55.61,0,0,0,6,20.81,1.7,1.7,0,0,1-.07,1.74c-2,3.95-4.13,7.83-5.74,11.93a113.12,113.12,0,0,0-3.54,11.81,2.33,2.33,0,0,0,1.73,3.05,2.37,2.37,0,0,0,2.93-2c.4-1.64.75-3.29,1.21-4.91a84.8,84.8,0,0,1,12.06-24.62c8.91-13,19.85-24.15,32-34.1.26-.21.54-.39.81-.58-11,14.25-20.35,29.34-26.51,46.36C360.7,202,370,204.82,380,205a33.88,33.88,0,0,0,15-2.91c6.91-3.19,11.61-8.62,15.17-15.16,3.86-7.1,6.16-14.77,8.18-22.54,2.29-8.8,4.35-17.67,6.83-26.42,2.27-8,5.35-15.62,11.64-21.61A2.83,2.83,0,0,0,436.28,116.09Z" class="cls-1"></path><path d="M394.21,287.77c-8.2-2.7-14-7.84-16.38-16.36a38.31,38.31,0,0,1-.91-14.73c.31-2.84.8-5.66,1.2-8.48-8.39,28.87-27.75,43.92-57.65,45.71,1,.07,2,0,3,.08a56.71,56.71,0,0,1,16.06,2.37c7.6,2.46,13.32,7,16,14.72a32.93,32.93,0,0,1,1.65,13.82c-.32,3.76-.88,7.51-1.2,10.21,1.21-3.06,2.56-7.24,4.48-11.13a98.33,98.33,0,0,1,6.72-11.3,50.51,50.51,0,0,1,20.34-16.28,100.69,100.69,0,0,1,12.48-4.12c4.19-1,8.53-1.47,12.8-2.17a10.34,10.34,0,0,1-1.77.09A55.44,55.44,0,0,1,394.21,287.77Z" class="cls-1"></path></svg>